<svg id="Flat" enable-background="new 0 0 64 64" height="512" viewBox="0 0 64 64" width="512" xmlns="http://www.w3.org/2000/svg"><path d="m60 0h-43c-1.105 0-2 .895-2 2v60c0 1.105.895 2 2 2h43c1.105 0 2-.895 2-2v-60c0-1.105-.895-2-2-2z" fill="#68dcf2"/><path d="m38 7h20v14h-14z" fill="#f5fcff"/><path d="m43.387 36.368c2.284-3.572 3.613-7.814 3.613-12.368 0-12.703-10.297-23-23-23s-23 10.297-23 23 10.297 23 23 23c4.04 0 7.834-1.045 11.133-2.874l19.867 18.874c4.418 0 8-3.582 8-8z" fill="#ffd642"/><path d="m37 45.759c3.325-1.843 6.14-4.489 8.196-7.673l-1.808-1.718c-2.06 3.223-4.898 5.898-8.254 7.759z" fill="#e6c13b"/><path d="m51.718 44.282-8 8 3.59 3.41 8-8z" fill="#ff593f"/><circle cx="24" cy="24" fill="#ffe68c" r="20"/><circle cx="24" cy="24" fill="#fffefa" r="17"/><circle cx="24" cy="24" fill="#fffefa" r="17"/><path d="m29 21v-10h-6c-2.209 0-4 1.791-4 4v6c0 1.516.844 2.835 2.087 3.514l-2.087 3.458.035.028h-.035v5h10v-5h-.035l.035-.028-2.087-3.459c1.243-.678 2.087-1.997 2.087-3.513z" fill="#ffd4cf"/><path d="m35 36v-2.91c0-.669-.334-1.293-.891-1.664l-5.109-3.406-5 4-5-4-5.133 3.527c-.543.373-.867.99-.867 1.648v2.832z" fill="#bde660"/><path d="m30 33.972-1-6-5 3.6-5-3.6-1 6 6-1.833z" fill="#ff593f"/><path d="m25 25h-2c-.693 0-1.345-.176-1.913-.486l-.897 1.486 1.951 1.024c1.164.611 2.554.611 3.718 0l1.951-1.024-.897-1.486c-.568.31-1.22.486-1.913.486z" fill="#e6aca3"/><path d="m28 14h-8.833c0-2.209 1.791-4 4-4h6.833v2c0 1.105-.895 2-2 2z" fill="#ff593f"/><g fill="#ffd642"><path d="m32 18h2v2h-2z"/><path d="m36 18h2v2h-2z"/><path d="m34 20h2v2h-2z"/><path d="m34 16h2v2h-2z"/><path d="m8 22h2v2h-2z"/><path d="m12 22h2v2h-2z"/><path d="m10 24h2v2h-2z"/><path d="m10 20h2v2h-2z"/></g><path d="m50 26h8v2h-8z" fill="#f5fcff"/><path d="m49 32h9v2h-9z" fill="#f5fcff"/><path d="m18 50h12v2h-12z" fill="#f5fcff"/><path d="m32 50h6v2h-6z" fill="#f5fcff"/><path d="m18 56h6v2h-6z" fill="#f5fcff"/><path d="m26 56h16v2h-16z" fill="#f5fcff"/><path d="m63 55-1-.95v4.82c.636-1.147 1-2.466 1-3.87z" fill="none"/><path d="m43.387 36.368c2.284-3.572 3.613-7.814 3.613-12.368 0-12.703-10.297-23-23-23s-23 10.297-23 23 10.297 23 23 23c4.04 0 7.834-1.045 11.133-2.874l19.867 18.874c3.014 0 5.636-1.668 7-4.13v-4.82z" fill="none"/></svg>