<svg id="Filled" enable-background="new 0 0 64 64" height="512" viewBox="0 0 64 64" width="512" xmlns="http://www.w3.org/2000/svg"><path d="m3 5h58v36h-58z" fill="#fffcfc"/><path d="m8 26h10v10h-10z" fill="#f2eeed"/><path d="m46 8h10v10h-10z" fill="#f2eeed"/><path d="m1 1h62v4h-62z" fill="#ff593f"/><path d="m1 41h62v4h-62z" fill="#ff593f"/><path d="m11.413 63h-6l3.174-18h6z" fill="#70d6ff"/><path d="m52.587 63h6l-3.174-18h-6z" fill="#70d6ff"/><path d="m63 6c.553 0 1-.448 1-1v-4c0-.552-.447-1-1-1h-62c-.552 0-1 .448-1 1v4c0 .552.448 1 1 1h1v34h-1c-.552 0-1 .448-1 1v4c0 .552.448 1 1 1h6.395l-2.967 16.826c-.051.292.029.59.219.816.19.227.471.358.766.358h6c.485 0 .9-.349.985-.826l3.028-17.174h33.148l3.028 17.174c.085.477.5.826.985.826h6c.296 0 .576-.131.766-.357s.271-.525.219-.816l-2.968-16.827h6.396c.553 0 1-.448 1-1v-4c0-.552-.447-1-1-1h-1v-34zm-61-4h60v2h-60zm8.574 60h-3.969l2.821-16h3.969zm46.822 0h-3.97l-2.821-16h3.97zm4.604-18h-60v-2h60zm-2-4h-56v-34h56z"/><path d="m42.6 12.8-1.2-1.6 4-3c.173-.13.383-.2.6-.2h10v2h-9.667z"/><path d="m46 12h4v2h-4z"/><path d="m52 12h4v2h-4z"/><path d="m46 16h10v2h-10z"/><path d="m18 36h-10v-2h9.667l3.733-2.8 1.2 1.6-4 3c-.173.13-.384.2-.6.2z"/><path d="m8 30h4v2h-4z"/><path d="m14 30h4v2h-4z"/><path d="m8 26h10v2h-10z"/><path d="m43 22c0 6.075-4.925 11-11 11s-11-4.925-11-11 4.925-11 11-11c5.392 0 9.878 3.88 10.819 9" fill="#ff593f"/><path d="m8 10h10v2h-10z"/><path d="m8 14h6v2h-6z"/><path d="m42.9095 19.9998c-.941-5.12-5.5165-8.9998-10.9095-8.9998v11l9.57 5.426c.91-1.601 1.5205-3.4532 1.5205-5.4262z" fill="#bde660"/><path d="m32 11c-6.075 0-11 4.925-11 11 0 1.973.52 3.825 1.43 5.426l9.57-5.426z" fill="#70d6ff"/><path d="m46 32h2v4h-2z"/><path d="m54 30h2v6h-2z"/><path d="m50 28h2v8h-2z"/><path d="m42 21.9998c0 1.43-.31 2.78-.85 4.01l-8.15-4.59v-9.37c4.44.44 8.03 3.8 8.83 8.13l1.97-.38c-1.04-5.57-5.93-9.8-11.8-9.8-6.62 0-12 5.38-12 12s5.38 12 12 12 12-5.38 12-12zm-19.15 4.01c-.54-1.23-.85-2.58-.85-4.01 0-5.18 3.95-9.45 9-9.95v9.37zm9.15 5.99c-3.37 0-6.36-1.68-8.17-4.25l8.17-4.6 8.17 4.6c-1.81 2.57-4.8 4.25-8.17 4.25z"/></svg>