<svg xmlns="http://www.w3.org/2000/svg" height="512pt" version="1.1" viewBox="0 0 512 512" width="512pt">
<g id="surface1">
<path d="M 512 256 C 512 397.386719 397.386719 512 256 512 C 114.613281 512 0 397.386719 0 256 C 0 114.613281 114.613281 0 256 0 C 397.386719 0 512 114.613281 512 256 Z M 512 256 " style=" stroke:none;fill-rule:nonzero;fill:rgb(100%,83.137255%,0%);fill-opacity:1;" />
<path d="M 512 256 C 512 243.875 511.136719 231.957031 509.507812 220.28125 L 351.878906 62.652344 L 91.066406 376.539062 L 224.605469 510.082031 C 234.894531 511.339844 245.371094 512 256 512 C 397.386719 512 512 397.386719 512 256 Z M 512 256 " style=" stroke:none;fill-rule:nonzero;fill:rgb(99.215686%,72.941176%,7.058824%);fill-opacity:1;" />
<path d="M 106.804688 164.773438 L 405.199219 164.773438 L 405.199219 348.851562 L 106.804688 348.851562 Z M 106.804688 164.773438 " style=" stroke:none;fill-rule:nonzero;fill:rgb(25.490196%,28.627451%,32.156863%);fill-opacity:1;" />
<path d="M 255.761719 164.773438 L 405.199219 164.773438 L 405.199219 348.847656 L 255.761719 348.847656 Z M 255.761719 164.773438 " style=" stroke:none;fill-rule:nonzero;fill:rgb(20%,22.352941%,25.098039%);fill-opacity:1;" />
<path d="M 125.304688 184.746094 L 386.695312 184.746094 L 386.695312 345.996094 L 125.304688 345.996094 Z M 125.304688 184.746094 " style=" stroke:none;fill-rule:nonzero;fill:rgb(29.019608%,47.843137%,100%);fill-opacity:1;" />
<path d="M 255.761719 184.746094 L 386.695312 184.746094 L 386.695312 345.996094 L 255.761719 345.996094 Z M 255.761719 184.746094 " style=" stroke:none;fill-rule:nonzero;fill:rgb(15.686275%,39.215686%,94.117647%);fill-opacity:1;" />
<path d="M 400.257812 385.941406 L 111.742188 385.941406 C 96.578125 385.941406 84.28125 373.648438 84.28125 358.480469 L 84.28125 331.265625 L 427.714844 331.265625 L 427.714844 358.480469 C 427.71875 373.648438 415.421875 385.941406 400.257812 385.941406 Z M 400.257812 385.941406 " style=" stroke:none;fill-rule:nonzero;fill:rgb(20%,22.352941%,25.098039%);fill-opacity:1;" />
<path d="M 255.761719 331.265625 L 255.761719 385.941406 L 400.257812 385.941406 C 415.421875 385.941406 427.71875 373.648438 427.71875 358.480469 L 427.71875 331.265625 Z M 255.761719 331.265625 " style=" stroke:none;fill-rule:nonzero;fill:rgb(13.72549%,15.294118%,16.862745%);fill-opacity:1;" />
<path d="M 351.878906 62.652344 L 332.699219 75.023438 L 313.523438 62.652344 L 294.347656 75.023438 L 275.167969 62.652344 L 255.992188 75.023438 L 236.816406 62.652344 L 217.644531 75.023438 L 198.472656 62.652344 L 179.296875 75.023438 L 160.121094 62.652344 L 160.121094 297 L 351.878906 297 Z M 351.878906 62.652344 " style=" stroke:none;fill-rule:nonzero;fill:rgb(100%,100%,100%);fill-opacity:1;" />
<path d="M 351.878906 62.652344 L 332.699219 75.023438 L 313.523438 62.652344 L 294.347656 75.023438 L 275.167969 62.652344 L 255.992188 75.023438 L 255.761719 74.875 L 255.761719 297 L 351.878906 297 Z M 351.878906 62.652344 " style=" stroke:none;fill-rule:nonzero;fill:rgb(91.372549%,92.941176%,96.078431%);fill-opacity:1;" />
<path d="M 230.460938 120.019531 L 173.421875 120.019531 L 173.421875 136.621094 L 193.640625 136.621094 L 193.640625 177.8125 L 210.242188 177.8125 L 210.242188 136.621094 L 230.460938 136.621094 Z M 230.460938 120.019531 " style=" stroke:none;fill-rule:nonzero;fill:rgb(3.529412%,80.784314%,40.392157%);fill-opacity:1;" />
<path d="M 338.578125 120.773438 L 320.703125 120.773438 L 312.613281 134.847656 L 304.527344 120.773438 L 286.648438 120.773438 L 303.035156 149.289062 L 286.648438 177.8125 L 304.527344 177.8125 L 312.613281 163.738281 L 320.703125 177.8125 L 338.578125 177.8125 L 322.191406 149.289062 Z M 338.578125 120.773438 " style=" stroke:none;fill-rule:nonzero;fill:rgb(10.196078%,67.843137%,36.078431%);fill-opacity:1;" />
<path d="M 266.640625 177.8125 L 283.242188 177.8125 L 267.492188 120.769531 L 242.378906 120.769531 L 226.628906 177.8125 L 243.230469 177.8125 L 247.230469 163.3125 L 262.636719 163.3125 Z M 250.429688 151.730469 L 254.9375 135.414062 L 259.441406 151.730469 Z M 250.429688 151.730469 " style=" stroke:none;fill-rule:nonzero;fill:rgb(3.529412%,80.784314%,40.392157%);fill-opacity:1;" />
<path d="M 267.492188 120.769531 L 255.761719 120.769531 L 255.761719 138.410156 L 259.441406 151.730469 L 255.761719 151.730469 L 255.761719 163.3125 L 262.640625 163.3125 L 266.640625 177.8125 L 283.242188 177.8125 Z M 267.492188 120.769531 " style=" stroke:none;fill-rule:nonzero;fill:rgb(10.196078%,67.843137%,36.078431%);fill-opacity:1;" />
</g>
</svg>